<?xml version="1.0" encoding="UTF-8"?>
<svg version="1.1" xmlns="http://www.w3.org/2000/svg" width="777" height="221">
<path d="M0 0 C256.41 0 512.82 0 777 0 C777 72.93 777 145.86 777 221 C520.59 221 264.18 221 0 221 C0 148.07 0 75.14 0 0 Z " fill="#FEFEFE" transform="translate(0,0)"/>
<path d="M0 0 C4.54137027 5.7799258 5.59373795 9.94348027 5.53515625 17.31640625 C4.57976549 23.89256312 1.33091387 29.33234808 -2 35 C-1.26064209 34.98428955 -0.52128418 34.9685791 0.24047852 34.95239258 C39.40224686 34.23039031 39.40224686 34.23039031 50.72265625 43.39453125 C52.81804649 46.02818688 52.18269123 48.772455 52 52 C52.680625 51.67 53.36125 51.34 54.0625 51 C57.64496824 49.78043634 60.23445682 49.59654895 64 50 C66.75329021 51.79562405 68.52627461 53.05254922 70 56 C70.80211434 61.46250016 70.69541004 65.7610241 67.375 70.3125 C66.28641875 71.57403341 65.16213385 72.80588082 64 74 C63.52046875 74.495 63.0409375 74.99 62.546875 75.5 C57.13219388 80.49816719 51.68161995 82.03973234 44.5 82 C40.55091662 82.2148037 39.3524016 82.64426862 36.51953125 85.50390625 C34.5243418 88.26892101 32.69898886 91.0450251 31 94 C32.2375 94.0825 33.475 94.165 34.75 94.25 C45.44204385 95.44548837 56.97049959 99.67898492 65 107 C67.45655113 110.6848267 67.80702154 113.72110453 67 118 C64.9375 120.6875 64.9375 120.6875 62 123 C61.05125 123.825 60.1025 124.65 59.125 125.5 C44.17061055 135.83803445 22.1646027 137.18719902 4.6940918 137.18530273 C2.46708525 137.18747119 0.24058999 137.20562225 -1.98632812 137.22460938 C-21.61154947 137.30381192 -44.10609274 134.92953002 -60.10546875 122.34375 C-62.37596174 120.0576701 -63.75045215 118.20258299 -64.41015625 115.0234375 C-64.35254854 111.70779379 -63.56172654 109.69746509 -61.48046875 107.11328125 C-52.513836 98.69450793 -38.42530582 93 -26 93 C-26.97839844 91.76636719 -26.97839844 91.76636719 -27.9765625 90.5078125 C-38.86905266 76.66170954 -45.68719846 64.38224066 -46.921875 46.3671875 C-45.33681911 42.29708637 -41.8387774 40.77272181 -38 39 C-34.80894255 37.94414034 -31.61881475 37.27577136 -28.3125 36.6875 C-27.44270508 36.52217773 -26.57291016 36.35685547 -25.67675781 36.18652344 C-18.72138462 34.94458434 -12.06638124 34.53578517 -5 35 C-4.9071875 33.2675 -4.9071875 33.2675 -4.8125 31.5 C-4.4112436 28.0163649 -3.53825968 26.09570986 -1.4375 23.3125 C3.20186172 16.56069116 1.39821584 7.63288319 0 0 Z " fill="#9E6937" transform="translate(114,42)"/>
<path d="M0 0 C5.61 0 11.22 0 17 0 C17 8.91 17 17.82 17 27 C19.64 25.68 22.28 24.36 25 23 C34.42664002 21.79224373 42.94441454 22.57424319 50.6875 28.25 C55.41241671 32.12169495 58.82047726 35.8450359 60 42 C60.76493251 50.77486862 60.7551926 57.98991578 55 65 C49.1712611 71.02789854 43.31581986 74.77877861 34.80859375 75.1328125 C33.69613281 75.13023437 32.58367188 75.12765625 31.4375 75.125 C30.32246094 75.12757813 29.20742188 75.13015625 28.05859375 75.1328125 C25.47664456 75.02069721 23.46705716 74.65925536 21 74 C19.54385122 73.90998353 18.08391947 73.86988098 16.625 73.875 C15.89539063 73.87242187 15.16578125 73.86984375 14.4140625 73.8671875 C11.56026763 74.0241924 8.81465572 74.51424879 6 75 C5.99857498 74.23071671 5.99714996 73.46143341 5.99568176 72.6688385 C5.97778502 65.38681176 5.93597601 58.10548635 5.86790943 50.82376957 C5.83374994 47.08091932 5.80854687 43.33847243 5.80444336 39.59545898 C5.80013636 35.97702904 5.77147857 32.35950727 5.72656822 28.74136162 C5.71366913 27.36726629 5.70925843 25.99306186 5.71384621 24.61891365 C5.73339875 16.97787536 5.46622445 11.16648494 1.06889343 4.74632263 C0 3 0 3 0 0 Z " fill="#151515" transform="translate(497,67)"/>
<path d="M0 0 C5.61 0 11.22 0 17 0 C17 8.91 17 17.82 17 27 C19.64 25.68 22.28 24.36 25 23 C28.6328125 22.5390625 28.6328125 22.5390625 32.125 22.625 C33.86136719 22.64433594 33.86136719 22.64433594 35.6328125 22.6640625 C43.39887206 23.43886659 50.37437169 27.03152268 55.65234375 32.80859375 C60.91807015 39.90587716 60.82199216 47.4115992 60 56 C57.60849918 63.4318837 52.45423204 68.47829191 45.78515625 72.25390625 C37.90610484 75.9188783 29.36420162 76.16017604 21 74 C19.54385122 73.90998353 18.08391947 73.86988098 16.625 73.875 C15.89539063 73.87242187 15.16578125 73.86984375 14.4140625 73.8671875 C11.56026763 74.0241924 8.81465572 74.51424879 6 75 C5.99857498 74.23071671 5.99714996 73.46143341 5.99568176 72.6688385 C5.97778502 65.38681176 5.93597601 58.10548635 5.86790943 50.82376957 C5.83374994 47.08091932 5.80854687 43.33847243 5.80444336 39.59545898 C5.80013636 35.97702904 5.77147857 32.35950727 5.72656822 28.74136162 C5.71366913 27.36726629 5.70925843 25.99306186 5.71384621 24.61891365 C5.73339875 16.97787536 5.46622445 11.16648494 1.06889343 4.74632263 C0 3 0 3 0 0 Z " fill="#151515" transform="translate(223,67)"/>
<path d="M0 0 C1.44632812 -0.01063477 1.44632812 -0.01063477 2.921875 -0.02148438 C10.36455931 0.04424585 15.9577898 1.2426932 22.25 5.4375 C22.25 6.0975 22.25 6.7575 22.25 7.4375 C22.848125 7.64375 23.44625 7.85 24.0625 8.0625 C27.26568719 10.07593195 27.97796751 11.87580904 29.25 15.4375 C29.48503664 18.78802235 29.42887054 22.08533353 29.25 25.4375 C29.93449219 25.1178125 30.61898437 24.798125 31.32421875 24.46875 C37.38678476 22.3318776 44.76719575 22.08277982 50.80078125 24.4296875 C56.3293123 28.11537487 58.94373045 33.02209332 60.25 39.4375 C60.59893418 43.45975949 60.70925555 47.48982682 60.81811523 51.5246582 C61.00822232 56.82185253 61.60918735 60.97727227 64.3125 65.6484375 C65.25 67.4375 65.25 67.4375 66.25 72.4375 C58.66 72.4375 51.07 72.4375 43.25 72.4375 C44.25 67.4375 44.25 67.4375 45.78540039 64.99780273 C48.49744462 60.25681125 47.71980031 54.8354232 47.6875 49.5 C47.70748047 48.33275391 47.72746094 47.16550781 47.74804688 45.96289062 C47.74438313 39.53302356 47.69619432 35.26598392 43.25 30.4375 C40.06016157 28.09828515 37.13475747 28.02422793 33.25 28.4375 C31.47703813 29.52371955 31.47703813 29.52371955 30.25 31.4375 C29.56527058 35.92526442 29.74076095 40.46593851 29.75 45 C29.70746094 46.8572168 29.70746094 46.8572168 29.6640625 48.75195312 C29.64867277 56.01975489 30.39702412 61.19354233 34.17382812 67.46459961 C35.25 69.4375 35.25 69.4375 35.25 72.4375 C27.66 72.4375 20.07 72.4375 12.25 72.4375 C13.25 67.4375 13.25 67.4375 14.78540039 64.54052734 C17.40052154 58.99990561 16.72045138 53.08960752 16.6875 47.0625 C16.70748047 45.7734375 16.72746094 44.484375 16.74804688 43.15625 C16.74419523 35.65324893 16.06128512 30.88272276 12.25 24.4375 C12.25 23.1175 12.25 21.7975 12.25 20.4375 C16.87 20.4375 21.49 20.4375 26.25 20.4375 C24.62709869 14.31894006 24.62709869 14.31894006 21.25 9.125 C14.13716715 5.12403152 7.43063906 2.82009328 -0.75 3.4375 C-0.5025 4.51 -0.255 5.5825 0 6.6875 C0.25 10.4375 0.25 10.4375 -1.25 12.875 C-4.67144502 15.01340314 -6.78478823 15.00395882 -10.75 14.4375 C-13.1875 12.8125 -13.1875 12.8125 -14.75 10.4375 C-15.32419398 6.9923361 -15.25980867 5.24762699 -13.390625 2.27734375 C-9.19633349 -0.64501025 -4.98374668 -0.1016422 0 0 Z " fill="#151515" transform="translate(392.75,69.5625)"/>
<path d="M0 0 C6.6 0 13.2 0 20 0 C20 1.65 20 3.3 20 5 C19.67 5.33 19.34 5.66 19 6 C18.67346121 10.51711993 19.3992638 13.71697884 21.1171875 17.87890625 C21.55933594 18.96494141 22.00148438 20.05097656 22.45703125 21.16992188 C22.92496094 22.28947266 23.39289062 23.40902344 23.875 24.5625 C24.33519531 25.68591797 24.79539062 26.80933594 25.26953125 27.96679688 C26.12662571 30.05736207 26.98796862 32.1461943 27.85498047 34.23266602 C28.23283691 35.14588623 28.61069336 36.05910645 29 37 C29.37914551 37.88163818 29.75829102 38.76327637 30.14892578 39.67163086 C31 42 31 42 31 45 C31.66 45 32.32 45 33 45 C33.12238037 44.27651367 33.24476074 43.55302734 33.37084961 42.80761719 C33.99744922 40.01138299 34.89592206 37.68844423 36.06640625 35.078125 C41.279739 22.98931288 44.43414228 13.19056784 43 0 C46.96 0 50.92 0 55 0 C56.1470925 2.85366608 57.2929143 5.70782816 58.4375 8.5625 C58.79078369 9.44333252 59.14406738 10.32416504 59.50805664 11.23168945 C61.52918179 16.28339789 63.52858405 21.34273315 65.5 26.4140625 C65.90677979 27.46005615 66.31355957 28.5060498 66.73266602 29.58374023 C67.52972936 31.63704647 68.32452538 33.69123443 69.11694336 35.74633789 C69.66040405 37.14613892 69.66040405 37.14613892 70.21484375 38.57421875 C70.69618774 39.82078247 70.69618774 39.82078247 71.18725586 41.0925293 C71.8480391 42.9724865 71.8480391 42.9724865 73 44 C74.53197326 40.12302922 76.06184711 36.24523844 77.58984375 32.36669922 C78.10913454 31.04941867 78.6289823 29.73235753 79.14941406 28.41552734 C79.90058221 26.51458266 80.64969427 24.6128384 81.3984375 22.7109375 C82.07398682 20.99849854 82.07398682 20.99849854 82.76318359 19.25146484 C85.53423543 11.96665071 86.54194616 7.7097308 85 0 C89.29 0 93.58 0 98 0 C98 1.32 98 2.64 98 4 C96.86884766 4.63035156 96.86884766 4.63035156 95.71484375 5.2734375 C92.00528834 7.63260799 91.04082104 10.66536986 89.5625 14.625 C89.12091553 15.74865967 89.12091553 15.74865967 88.67041016 16.89501953 C86.34619944 22.87851954 84.22906795 28.93642648 82.14233398 35.00610352 C80.11354712 40.85184215 77.67401268 46.41603234 75 52 C71.04 52 67.08 52 63 52 C59.36282157 44.2152753 56.15449655 36.37423938 53.1875 28.3125 C52.78080078 27.21744141 52.37410156 26.12238281 51.95507812 24.99414062 C50.96647513 22.33072786 49.98151299 19.66603184 49 17 C46.81812863 20.27280706 45.57784637 23.58329871 44.25 27.25 C42.12810375 33.00621496 39.95783148 38.73805095 37.6875 44.4375 C37.43323242 45.08170898 37.17896484 45.72591797 36.91699219 46.38964844 C35.12060458 50.87939542 35.12060458 50.87939542 34 52 C31.98035801 52.07244053 29.95832876 52.08377188 27.9375 52.0625 C26.83277344 52.05347656 25.72804688 52.04445312 24.58984375 52.03515625 C23.73519531 52.02355469 22.88054688 52.01195312 22 52 C21.5968457 50.95134766 21.19369141 49.90269531 20.77832031 48.82226562 C19.26899035 44.8994858 17.75439894 40.97875462 16.23828125 37.05859375 C15.58517072 35.36773447 14.93345238 33.6763367 14.28320312 31.984375 C13.34358145 29.54020572 12.3988242 27.09807319 11.453125 24.65625 C11.16753723 23.91008423 10.88194946 23.16391846 10.58770752 22.3951416 C8.22766954 16.3250173 5.84073094 10.30091368 1.75 5.1875 C0 3 0 3 0 0 Z " fill="#181818" transform="translate(663,90)"/>
<path d="M0 0 C5.10822083 2.856372 8.17482049 5.65477239 11.015625 10.8515625 C11.5399939 13.97565431 11.48355798 17.02711186 11.40625 20.1875 C11.40059021 21.06685211 11.39493042 21.94620422 11.38909912 22.85220337 C11.36681584 25.64422432 11.31663563 28.43493342 11.265625 31.2265625 C11.24554954 33.12628347 11.22730061 35.02602468 11.2109375 36.92578125 C11.16697756 41.56820916 11.09800682 46.20966387 11.015625 50.8515625 C9.97921875 50.83996094 8.9428125 50.82835937 7.875 50.81640625 C6.50521014 50.80702413 5.13541832 50.79792438 3.765625 50.7890625 C3.08371094 50.78068359 2.40179688 50.77230469 1.69921875 50.76367188 C-1.70005473 50.74717055 -4.72588402 50.87401521 -7.984375 51.8515625 C-13.9778184 52.42785513 -18.09171836 51.20241558 -22.984375 47.8515625 C-27.83030544 43.27485042 -30.27775449 38.74785567 -30.484375 32.1015625 C-30.38497886 26.66790682 -29.36649509 23.51726469 -25.73828125 19.4765625 C-20.0394196 14.19654814 -15.64283863 13.40785021 -7.8515625 13.41796875 C-4.61484003 13.90744585 -2.65816774 15.00537227 0.015625 16.8515625 C-0.29565016 15.26798791 -0.60844789 13.68471257 -0.921875 12.1015625 C-1.09589844 11.21984375 -1.26992188 10.338125 -1.44921875 9.4296875 C-1.90805988 7.21921197 -2.41773574 5.03644182 -2.984375 2.8515625 C-8.9179807 2.22264455 -8.9179807 2.22264455 -13.859375 5.1640625 C-16.04034552 7.84782059 -16.04034552 7.84782059 -17.984375 10.8515625 C-20.1484375 11.14453125 -20.1484375 11.14453125 -22.609375 11.0390625 C-23.42664063 11.01199219 -24.24390625 10.98492187 -25.0859375 10.95703125 C-25.71242188 10.92222656 -26.33890625 10.88742188 -26.984375 10.8515625 C-25.99685823 5.66709948 -23.82493407 2.91334673 -19.5859375 0 C-13.34145821 -2.75657194 -6.30175035 -2.42501911 0 0 Z " fill="#171717" transform="translate(355.984375,91.1484375)"/>
<path d="M0 0 C4.97632194 3.49618516 8.26157374 7.81927823 10.4375 13.5 C10.9325 17.955 10.9325 17.955 11.4375 22.5 C-2.7525 22.5 -16.9425 22.5 -31.5625 22.5 C-28.996486 31.39646231 -28.996486 31.39646231 -24.5625 38.5 C-24.2325 39.49 -23.9025 40.48 -23.5625 41.5 C-21.67933841 42.60836423 -21.67933841 42.60836423 -19.5625 43.5 C-18.5725 44.16 -17.5825 44.82 -16.5625 45.5 C-14.14962654 45.77923967 -14.14962654 45.77923967 -11.5625 45.6875 C-10.69625 45.68105469 -9.83 45.67460937 -8.9375 45.66796875 C-6.41322535 45.58830437 -6.41322535 45.58830437 -3.5625 44.5 C-1.25765066 40.89867291 -0.02719895 36.49463349 1.4375 32.5 C4.0775 32.5 6.7175 32.5 9.4375 32.5 C6.14404285 40.66204598 1.23837345 45.41660209 -6.875 48.9375 C-14.99981016 50.17687782 -22.25049673 50.52906302 -29.5625 46.5 C-30.408125 46.108125 -31.25375 45.71625 -32.125 45.3125 C-39.54681186 39.79371682 -42.54442956 32.11745788 -43.9140625 23.21484375 C-44.34342832 16.8082537 -42.15904164 11.73054734 -38.5625 6.5 C-27.75528678 -5.11339647 -14.1179901 -8.32961416 0 0 Z " fill="#1D1D1D" transform="translate(649.5625,93.5)"/>
<path d="M0 0 C0.99 3.63 1.98 7.26 3 11 C3 10.01 3 9.02 3 8 C3 5.33333333 3 2.66666667 3 0 C12.47750813 -0.33537709 21.66100882 -0.00860546 31.0625 1.3125 C31.92963623 1.43020752 32.79677246 1.54791504 33.69018555 1.66918945 C46.61699684 3.61699684 46.61699684 3.61699684 51 8 C50.8296019 10.64117059 50.30346894 11.71681061 48.36328125 13.52734375 C45.39177276 15.37901102 42.7420342 15.93833859 39.3125 16.625 C38.15363281 16.86476563 36.99476563 17.10453125 35.80078125 17.3515625 C26.59618517 18.92192524 17.55881593 19.21653599 8.24633789 19.24023438 C5.96657924 19.249877 3.68774896 19.2809526 1.40820312 19.3125 C-10.5605859 19.39990241 -23.36091996 19.05502974 -34 13 C-34.66 12.34 -35.32 11.68 -36 11 C-35.84399414 9.00878906 -35.84399414 9.00878906 -35 7 C-30.16919379 3.20672883 -23.98969386 2.11491241 -18.0625 1.25 C-17.31548828 1.12496094 -16.56847656 0.99992187 -15.79882812 0.87109375 C-10.48586495 0.03678892 -5.37555936 -0.10676384 0 0 Z " fill="#FDFCFB" transform="translate(109,79)"/>
<path d="M0 0 C6.83060384 2.39621989 10.68051551 7.73598527 14.0390625 13.91015625 C16.72267292 20.01725098 17.28485969 26.99387336 15.23828125 33.375 C13.48964445 37.1349147 11.72707201 39.9561218 8 42 C3.65297424 43.44900859 -0.19023575 43.7239057 -4.5 42 C-11.21923569 36.62461145 -15.92371389 30.4419058 -18 22 C-18.62761155 16.16082925 -18.67091788 10.34183575 -16 5 C-10.63273008 -1.03817866 -7.67203535 -1.58992838 0 0 Z " fill="#FAFAFA" transform="translate(531,95)"/>
<path d="M0 0 C6.08196821 2.13359369 9.87205573 6.49292235 13 12 C15.8672448 18.6938309 17.65053839 26.15842073 15.23828125 33.234375 C13.4781112 37.04691724 11.78186802 39.92607238 8 42 C3.65297424 43.44900859 -0.19023575 43.7239057 -4.5 42 C-12.31218648 35.75025081 -17.16047977 28.38565268 -18.30859375 18.28515625 C-18.47090282 11.93600729 -17.84053223 7.07059876 -13.5 2.1875 C-8.9677856 -1.7781876 -5.68710564 -1.17857781 0 0 Z " fill="#FBFBFB" transform="translate(257,95)"/>
<path d="M0 0 C5.61 0 11.22 0 17 0 C17.33 1.32 17.66 2.64 18 4 C19.093125 3.34 20.18625 2.68 21.3125 2 C27.49623064 -1.11942205 34.42456835 -0.88966844 41 1 C39.50163895 4.11198065 37.80066242 7.0534615 36 10 C35.175 9.67 34.35 9.34 33.5 9 C28.84298595 7.66942456 24.29935251 6.82831976 19.79321289 9.12451172 C15.97813375 13.11463261 17.3942106 19.92008585 17.4375 25.125 C17.41365234 26.41921875 17.38980469 27.7134375 17.36523438 29.046875 C17.37612495 36.17656867 17.82695135 41.31084565 21.92602539 47.26123047 C23 49 23 49 23 52 C15.41 52 7.82 52 0 52 C1 47 1 47 2.53759766 44.08935547 C4.16990932 40.64106302 4.38666925 38.36361171 4.3984375 34.5703125 C4.40230469 33.36246094 4.40617187 32.15460938 4.41015625 30.91015625 C4.39855469 29.66105469 4.38695312 28.41195312 4.375 27.125 C4.38660156 25.88363281 4.39820313 24.64226562 4.41015625 23.36328125 C4.38809624 16.45849729 3.82366867 11.2923378 1 5 C0.67 3.35 0.34 1.7 0 0 Z " fill="#131313" transform="translate(290,90)"/>
<path d="M0 0 C5.61 0 11.22 0 17 0 C17.33 1.32 17.66 2.64 18 4 C18.7425 3.525625 19.485 3.05125 20.25 2.5625 C24.05801368 0.39885586 27.21033818 -0.15067968 31.5625 -0.1875 C32.32691406 -0.20167969 33.09132813 -0.21585937 33.87890625 -0.23046875 C36 0 36 0 39 2 C38.34 4.97 37.68 7.94 37 11 C35.2365625 10.2575 35.2365625 10.2575 33.4375 9.5 C29.48127427 8.02954442 26.2513614 7.5094583 22 8 C19.72956588 9.05025761 19.72956588 9.05025761 18 11 C17.39839376 13.86241146 17.39839376 13.86241146 17.50390625 17.13671875 C17.50326172 18.35423828 17.50261719 19.57175781 17.50195312 20.82617188 C17.53192383 22.7375293 17.53192383 22.7375293 17.5625 24.6875 C17.55541016 25.94240234 17.54832031 27.19730469 17.54101562 28.49023438 C17.58851367 35.42860287 18.16064854 40.67828873 21 47 C21.33 48.65 21.66 50.3 22 52 C14.74 52 7.48 52 0 52 C1 47 1 47 2.5390625 44.02734375 C4.98785144 38.51384027 4.43251888 32.47735797 4.375 26.5625 C4.38660156 25.37333984 4.39820313 24.18417969 4.41015625 22.95898438 C4.38760005 16.18836555 3.74405553 11.17760724 1 5 C0.67 3.35 0.34 1.7 0 0 Z " fill="#141414" transform="translate(564,90)"/>
<path d="M0 0 C0 0.99 0 1.98 0 3 C13.42708689 6.6918995 24.62788999 7.04777384 38 3 C38 2.01 38 1.02 38 0 C44.52396607 0.25786427 48.87818251 0.82167521 54 5 C53.42655063 7.86724686 53.1385485 8.8614515 51 11 C31.73912732 17.69730852 6.11425506 18.47119242 -13 11 C-13.99 10.34 -14.98 9.68 -16 9 C-15.8125 6.6875 -15.8125 6.6875 -15 4 C-10.11703022 0.30477963 -5.98786129 -0.13608776 0 0 Z " fill="#FBF9F7" transform="translate(98,148)"/>
<path d="M0 0 C4.95 0 9.9 0 15 0 C15.0093457 1.16982422 15.01869141 2.33964844 15.02832031 3.54492188 C15.06840062 7.913789 15.13420859 12.28196523 15.20751953 16.65039062 C15.23562497 18.53571654 15.25689106 20.42115799 15.27099609 22.30664062 C15.29257089 25.027941 15.33929349 27.74786731 15.390625 30.46875 C15.39185364 31.30241089 15.39308228 32.13607178 15.39434814 32.99499512 C15.52203826 38.17694434 16.47144502 41.73247809 19.14642334 46.19445801 C20 48 20 48 20 52 C13.4 52 6.8 52 0 52 C1 47 1 47 2.53515625 44.05859375 C5.04603715 38.40184379 4.47216698 32.12922197 4.4375 26.0625 C4.45748047 24.82564453 4.47746094 23.58878906 4.49804688 22.31445312 C4.49410895 14.94660347 3.71050192 10.34091714 0 4 C0 2.68 0 1.36 0 0 Z " fill="#121212" transform="translate(377,90)"/>
<path d="M0 0 C5.13575316 1.6507778 8.2147329 4.30789824 11.3125 8.6875 C13.57662371 13.33491182 14.23482277 17.96138052 13.5 23.125 C11.48497111 26.87712276 10.04533858 28.76144095 6.5 31.125 C3.45604526 31.67844632 1.44028501 31.64195323 -1.3046875 30.1328125 C-6.47971353 26.20156955 -9.07597511 21.42214901 -10.5 15.125 C-10.86154184 10.83013231 -10.75711348 7.02743174 -8.328125 3.3515625 C-5.65284692 0.74820049 -3.68497682 0.13160632 0 0 Z " fill="#F8F8F8" transform="translate(343.5,107.875)"/>
<path d="M0 0 C6.24195494 2.44693696 10.80759081 7.16750156 14 13 C14.33 14.65 14.66 16.3 15 18 C4.44 18 -6.12 18 -17 18 C-17 8.91031087 -16.84229985 7.26922205 -11.3125 1.125 C-7.54645435 -0.70713032 -4.09427516 -0.70149031 0 0 Z " fill="#FAFAFA" transform="translate(634,93)"/>
<path d="M0 0 C2.50448906 3.75673358 2.1435277 5.41120043 1.53515625 9.71875 C0.38414554 14.6252482 -2.12443123 17.33885624 -6.0625 20.3125 C-9.81974379 22.47091665 -12.42845348 23.12422531 -16.6875 23.0625 C-17.89986328 23.04896484 -17.89986328 23.04896484 -19.13671875 23.03515625 C-19.75160156 23.02355469 -20.36648437 23.01195313 -21 23 C-20.32236863 20.8747016 -19.62474125 18.75903664 -18.90234375 16.6484375 C-18.30395547 14.89212903 -17.73320361 13.12614516 -17.19140625 11.3515625 C-15.296228 5.74183488 -13.35285167 2.5167575 -8.03125 -0.29296875 C-4.98741367 -1.35245793 -2.98486008 -1.13708955 0 0 Z " fill="#FBF8F6" transform="translate(179,96)"/>
<path d="M0 0 C4.54137027 5.7799258 5.59373795 9.94348027 5.53515625 17.31640625 C4.57976549 23.89256312 1.33091387 29.33234808 -2 35 C-1.20827393 34.99476318 -0.41654785 34.98952637 0.39916992 34.98413086 C3.99527184 34.96331063 7.59136105 34.95032373 11.1875 34.9375 C12.43337891 34.92912109 13.67925781 34.92074219 14.96289062 34.91210938 C16.16494141 34.90888672 17.36699219 34.90566406 18.60546875 34.90234375 C19.71043701 34.89710693 20.81540527 34.89187012 21.95385742 34.88647461 C24.75799379 34.99098077 27.27417329 35.35902041 30 36 C29.67 36.99 29.34 37.98 29 39 C18.77 38.34 8.54 37.68 -2 37 C-1.34 40.63 -0.68 44.26 0 48 C-0.66 48 -1.32 48 -2 48 C-2.50615298 46.73160474 -3.00469099 45.46016898 -3.5 44.1875 C-3.7784375 43.47980469 -4.056875 42.77210937 -4.34375 42.04296875 C-5 40 -5 40 -5 37 C-9.41714827 37.64256736 -13.83362866 38.28961608 -18.25 38.9375 C-20.13138672 39.21110352 -20.13138672 39.21110352 -22.05078125 39.49023438 C-23.25605469 39.66748047 -24.46132812 39.84472656 -25.703125 40.02734375 C-26.81333008 40.18968506 -27.92353516 40.35202637 -29.06738281 40.51928711 C-31.42862414 40.9063404 -33.69457883 41.36968804 -36 42 C-35.67 40.68 -35.34 39.36 -35 38 C-24.86185582 35.96022967 -15.38006571 34.51258822 -5 35 C-4.9071875 33.2675 -4.9071875 33.2675 -4.8125 31.5 C-4.4112436 28.0163649 -3.53825968 26.09570986 -1.4375 23.3125 C3.20186172 16.56069116 1.39821584 7.63288319 0 0 Z " fill="#A67547" transform="translate(114,42)"/>
<path d="M0 0 C1.44632812 -0.01063477 1.44632812 -0.01063477 2.921875 -0.02148438 C10.36455931 0.04424585 15.9577898 1.2426932 22.25 5.4375 C22.25 6.0975 22.25 6.7575 22.25 7.4375 C22.848125 7.64375 23.44625 7.85 24.0625 8.0625 C27.12311475 9.98631498 27.9250005 12.12500124 29.25 15.4375 C29.25 16.7575 29.25 18.0775 29.25 19.4375 C28.26 19.7675 27.27 20.0975 26.25 20.4375 C26.09144531 19.83421875 25.93289063 19.2309375 25.76953125 18.609375 C24.25123675 13.40858722 23.16884921 10.20435268 18.25 7.4375 C11.79579295 4.52956056 6.33468644 2.90280668 -0.75 3.4375 C-0.5025 4.51 -0.255 5.5825 0 6.6875 C0.25 10.4375 0.25 10.4375 -1.25 12.875 C-4.67144502 15.01340314 -6.78478823 15.00395882 -10.75 14.4375 C-13.1875 12.8125 -13.1875 12.8125 -14.75 10.4375 C-15.32419398 6.9923361 -15.25980867 5.24762699 -13.390625 2.27734375 C-9.19633349 -0.64501025 -4.98374668 -0.1016422 0 0 Z " fill="#151515" transform="translate(392.75,69.5625)"/>
<path d="M0 0 C8.968 1.976 8.968 1.976 13 5 C13 5.66 13 6.32 13 7 C13.598125 7.20625 14.19625 7.4125 14.8125 7.625 C17.87311475 9.54881498 18.6750005 11.68750124 20 15 C20 16.32 20 17.64 20 19 C19.01 19.33 18.02 19.66 17 20 C16.84144531 19.39671875 16.68289063 18.7934375 16.51953125 18.171875 C15.00123675 12.97108722 13.91884921 9.76685268 9 7 C5.3745962 5.53245291 1.71452167 4.22299487 -2 3 C-1.34 2.67 -0.68 2.34 0 2 C0 1.34 0 0.68 0 0 Z " fill="#262626" transform="translate(402,70)"/>
<path d="M0 0 C0.33 0 0.66 0 1 0 C1.03738281 0.89203125 1.07476562 1.7840625 1.11328125 2.703125 C1.17902344 3.87359375 1.24476562 5.0440625 1.3125 6.25 C1.37050781 7.41015625 1.42851563 8.5703125 1.48828125 9.765625 C1.7298904 12.97977925 1.7298904 12.97977925 3.53125 14.96875 C5.72536352 18.00316231 5.2897105 20.57042207 5.1875 24.25 C5.14689453 26.14492188 5.14689453 26.14492188 5.10546875 28.078125 C5.07066406 29.04234375 5.03585938 30.0065625 5 31 C4.34 31.33 3.68 31.66 3 32 C3.1546875 30.6696875 3.1546875 30.6696875 3.3125 29.3125 C3.35308784 25.31865652 2.01245788 22.22648248 0.5 18.5625 C-1.94978609 12.52478358 -3.5220008 7.80500201 -1 1.5 C-0.67 1.005 -0.34 0.51 0 0 Z " fill="#A67546" transform="translate(126,30)"/>
<path d="M0 0 C1.27875 0.28875 2.5575 0.5775 3.875 0.875 C4.95394531 1.11863281 4.95394531 1.11863281 6.0546875 1.3671875 C8 2 8 2 10 4 C9.67 4.66 9.34 5.32 9 6 C5.37 5.01 1.74 4.02 -2 3 C-1.34 2.67 -0.68 2.34 0 2 C0 1.34 0 0.68 0 0 Z " fill="#424242" transform="translate(402,70)"/>
<path d="M0 0 C3.3 0.33 6.6 0.66 10 1 C9.67 1.99 9.34 2.98 9 4 C2.07 3.505 2.07 3.505 -5 3 C-5 2.67 -5 2.34 -5 2 C-3.35 1.67 -1.7 1.34 0 1 C0 0.67 0 0.34 0 0 Z " fill="#B9926D" transform="translate(134,77)"/>
<path d="M0 0 C0.33 0 0.66 0 1 0 C1 3.63 1 7.26 1 11 C0.01 11.33 -0.98 11.66 -2 12 C-2.28571429 3.42857143 -2.28571429 3.42857143 0 0 Z " fill="#B38962" transform="translate(126,30)"/>
<path d="M0 0 C8.57142857 -0.28571429 8.57142857 -0.28571429 12 2 C11.34 2 10.68 2 10 2 C10 2.66 10 3.32 10 4 C8.51882199 3.71872579 7.04006751 3.42466268 5.5625 3.125 C4.73878906 2.96257812 3.91507813 2.80015625 3.06640625 2.6328125 C2.38449219 2.42398438 1.70257813 2.21515625 1 2 C0.67 1.34 0.34 0.68 0 0 Z " fill="#AB7C50" transform="translate(142,79)"/>
<path d="M0 0 C1.32 0.33 2.64 0.66 4 1 C4 1.66 4 2.32 4 3 C5.32 3.66 6.64 4.32 8 5 C8 5.66 8 6.32 8 7 C4.65980694 6.40353695 2.49529367 5.31705841 0 3 C0 2.01 0 1.02 0 0 Z " fill="#303030" transform="translate(411,74)"/>
</svg>
